%
M48
M72
T01C0.0140
T02C0.0400
T03C0.0591
T04C0.0675
T05C0.1575
%
T01
X29828Y777
X29800Y7683
X25400Y10683
X36717Y777
X54237Y777
X121560Y777
X76600Y8983
X75500Y8983
X62702Y777
X38500Y19283
X22700Y26583
X32200Y29083
X36900Y28983
X60200Y44883
X60000Y28883
X52800Y28883
X45200Y28883
X11600Y30083
X33800Y39383
X43400Y42083
X51700Y41183
X55200Y41083
X111000Y21683
X83300Y30383
X76608Y30283
X75300Y28883
X67600Y28983
X23800Y40583
T02
X110200Y5283
X109200Y5283
X108200Y5283
X107200Y5283
X106200Y5283
X105200Y5283
X104200Y5283
X103200Y5283
X102200Y5283
X101200Y5283
X100200Y5283
X84000Y5283
X83000Y5283
X82000Y5283
X81000Y5283
X80000Y5283
X79000Y5283
X78000Y5283
X77000Y5283
X76000Y5283
X75000Y5283
X74000Y5283
T03
X28036Y5084
X5527Y5084
X3027Y6084
X10527Y6084
X13027Y5084
X18027Y6084
X20527Y5084
X25536Y6084
X41200Y5084
X38700Y6084
X50481Y5084
X47981Y6084
X52381Y12525
X49881Y13525
X59822Y12525
X67292Y12525
X74772Y12525
X82233Y12525
X89694Y12525
X97174Y12525
X104684Y12525
X112184Y12525
X119684Y12525
X127213Y12525
X134743Y12525
X132243Y13525
X124713Y13525
X117184Y13525
X109684Y13525
X102184Y13525
X94674Y13525
X87194Y13525
X79733Y13525
X72272Y13525
X64792Y13525
X57322Y13525
X48621Y20084
X41150Y20084
X38650Y21084
X46121Y21084
X53591Y21084
X56091Y20084
X63552Y20084
X71022Y20084
X78473Y20084
X85973Y20084
X93404Y20084
X100904Y20084
X108414Y20084
X115963Y20084
X123444Y20084
X131003Y20084
X128503Y21084
X120944Y21084
X113463Y21084
X105914Y21084
X98404Y21084
X90904Y21084
X83473Y21084
X75973Y21084
X68522Y21084
X61052Y21084
X43030Y27564
X40530Y28564
X48001Y28564
X50501Y27564
X55471Y28564
X57971Y27564
X65452Y27564
X72922Y27564
X80353Y27564
X87833Y27564
X95304Y27564
X102814Y27564
X110284Y27564
X117774Y27564
X125314Y27564
X132843Y27564
X140432Y27564
X137932Y28564
X134274Y47368
X136774Y46368
X127197Y46368
X124697Y47368
X115919Y46368
X113419Y47368
X104658Y46368
X102158Y47368
X93430Y46368
X90930Y47368
X72874Y46368
X65450Y46368
X62950Y47368
X35554Y46368
X33054Y47368
X20523Y46368
X18023Y47368
X25547Y47368
X28047Y46368
X40528Y47368
X43028Y46368
X47985Y47368
X50485Y46368
X55476Y47368
X57976Y46368
X70374Y47368
X77848Y47368
X80348Y46368
X59221Y36084
X61721Y35084
X54221Y35084
X46770Y35084
X44270Y36084
X39290Y35084
X36790Y36084
X5524Y35084
X3024Y36084
X10548Y36084
X13048Y35084
X18023Y36084
X20523Y35084
X25547Y36084
X28047Y35084
X25540Y28564
X28040Y27564
X5524Y27564
X3024Y28564
X10539Y28564
X13039Y27564
X18023Y28564
X20523Y27564
X18027Y21084
X20527Y20084
X5527Y20084
X3027Y21084
X10536Y21084
X13036Y20084
X28046Y20084
X25546Y21084
X25536Y13525
X28036Y12525
X5536Y12525
X3036Y13525
X10527Y13525
X13027Y12525
X18027Y13525
X20527Y12525
X41170Y12525
X38670Y13525
X71406Y5084
X68906Y6084
X115501Y5084
X113001Y6084
X93454Y5084
X90954Y6084
X138532Y20084
X136032Y21084
X130343Y28564
X122814Y28564
X115274Y28564
X107784Y28564
X100314Y28564
X92804Y28564
X85333Y28564
X77853Y28564
X70422Y28564
X62952Y28564
X69172Y35084
X76633Y35084
X74133Y36084
X84103Y35084
X91564Y35084
X99054Y35084
X106544Y35084
X114064Y35084
X121564Y35084
X129064Y35084
X136652Y35084
X134152Y36084
X126564Y36084
X119064Y36084
X111564Y36084
X104044Y36084
X96554Y36084
X89064Y36084
X81603Y36084
X66672Y36084
X51721Y36084
X7378Y46368
X4878Y47368
T04
X28536Y4084
X24536Y4084
X21027Y4084
X17027Y4084
X13527Y4084
X9527Y4084
X6027Y4084
X2027Y4084
X2036Y11525
X6036Y11525
X9527Y11525
X13527Y11525
X17027Y11525
X21027Y11525
X24536Y11525
X28536Y11525
X37670Y11525
X41670Y11525
X48881Y11525
X52881Y11525
X56322Y11525
X60322Y11525
X63792Y11525
X67792Y11525
X71272Y11525
X75272Y11525
X78733Y11525
X82733Y11525
X86194Y11525
X90194Y11525
X93674Y11525
X97674Y11525
X101184Y11525
X105184Y11525
X108684Y11525
X112684Y11525
X116184Y11525
X120184Y11525
X123713Y11525
X127713Y11525
X131243Y11525
X135243Y11525
X116001Y4084
X112001Y4084
X93954Y4084
X89954Y4084
X71906Y4084
X67906Y4084
X50981Y4084
X46981Y4084
X41700Y4084
X37700Y4084
X56591Y19084
X52591Y19084
X49121Y19084
X45121Y19084
X41650Y19084
X37650Y19084
X28546Y19084
X24546Y19084
X21027Y19084
X17027Y19084
X13536Y19084
X9536Y19084
X6027Y19084
X2027Y19084
X2024Y26564
X6024Y26564
X9539Y26564
X13539Y26564
X17023Y26564
X21023Y26564
X24540Y26564
X28540Y26564
X39530Y26564
X43530Y26564
X47001Y26564
X51001Y26564
X54471Y26564
X58471Y26564
X61952Y26564
X65952Y26564
X69422Y26564
X73422Y26564
X76853Y26564
X80853Y26564
X84333Y26564
X88333Y26564
X91804Y26564
X95804Y26564
X99314Y26564
X103314Y26564
X106784Y26564
X110784Y26564
X114274Y26564
X118274Y26564
X121814Y26564
X125814Y26564
X129343Y26564
X133343Y26564
X136932Y26564
X140932Y26564
X137274Y45368
X133274Y45368
X127697Y45368
X123697Y45368
X116419Y45368
X112419Y45368
X105158Y45368
X101158Y45368
X93930Y45368
X89930Y45368
X80848Y45368
X76848Y45368
X73374Y45368
X69374Y45368
X65950Y45368
X61950Y45368
X58476Y45368
X54476Y45368
X50985Y45368
X46985Y45368
X43528Y45368
X39528Y45368
X36054Y45368
X32054Y45368
X28547Y45368
X24547Y45368
X21023Y45368
X17023Y45368
X7878Y45368
X3878Y45368
X2024Y34084
X6024Y34084
X9548Y34084
X13548Y34084
X17023Y34084
X21023Y34084
X24547Y34084
X28547Y34084
X35790Y34084
X39790Y34084
X43270Y34084
X47270Y34084
X50721Y34084
X54721Y34084
X58221Y34084
X62221Y34084
X65672Y34084
X69672Y34084
X73133Y34084
X77133Y34084
X80603Y34084
X84603Y34084
X88064Y34084
X92064Y34084
X95554Y34084
X99554Y34084
X103044Y34084
X107044Y34084
X110564Y34084
X114564Y34084
X118064Y34084
X122064Y34084
X125564Y34084
X129564Y34084
X133152Y34084
X137152Y34084
X127503Y19084
X131503Y19084
X135032Y19084
X139032Y19084
X123944Y19084
X119944Y19084
X116463Y19084
X112463Y19084
X108914Y19084
X104914Y19084
X101404Y19084
X97404Y19084
X93904Y19084
X89904Y19084
X86473Y19084
X82473Y19084
X78973Y19084
X74973Y19084
X71522Y19084
X67522Y19084
X64052Y19084
X60052Y19084
T05
X26536Y4084
X19027Y4084
X11527Y4084
X4027Y4084
X4036Y11525
X11527Y11525
X19027Y11525
X26536Y11525
X39670Y11525
X50881Y11525
X58322Y11525
X65792Y11525
X73272Y11525
X80733Y11525
X88194Y11525
X95674Y11525
X103184Y11525
X110684Y11525
X118184Y11525
X125713Y11525
X133243Y11525
X114001Y4084
X91954Y4084
X69906Y4084
X48981Y4084
X39700Y4084
X54591Y19084
X47121Y19084
X39650Y19084
X26546Y19084
X19027Y19084
X11536Y19084
X4027Y19084
X4024Y26564
X11539Y26564
X19023Y26564
X26540Y26564
X41530Y26564
X49001Y26564
X56471Y26564
X63952Y26564
X71422Y26564
X78853Y26564
X86333Y26564
X93804Y26564
X101314Y26564
X108784Y26564
X116274Y26564
X123814Y26564
X131343Y26564
X138932Y26564
X135274Y45368
X125697Y45368
X114419Y45368
X103158Y45368
X91930Y45368
X78848Y45368
X71374Y45368
X63950Y45368
X56476Y45368
X48985Y45368
X41528Y45368
X34054Y45368
X26547Y45368
X19023Y45368
X5878Y45368
X4024Y34084
X11548Y34084
X19023Y34084
X26547Y34084
X37790Y34084
X45270Y34084
X52721Y34084
X60221Y34084
X67672Y34084
X75133Y34084
X82603Y34084
X90064Y34084
X97554Y34084
X105044Y34084
X112564Y34084
X120064Y34084
X127564Y34084
X135152Y34084
X129503Y19084
X137032Y19084
X121944Y19084
X114463Y19084
X106914Y19084
X99404Y19084
X91904Y19084
X84473Y19084
X76973Y19084
X69522Y19084
X62052Y19084
M30
